<?xml version="1.0" encoding="UTF-8" standalone="no" ?>
<!DOCTYPE svg PUBLIC "-//W3C//DTD SVG 1.1//EN" "http://www.w3.org/Graphics/SVG/1.1/DTD/svg11.dtd">
<svg xmlns="http://www.w3.org/2000/svg" xmlns:xlink="http://www.w3.org/1999/xlink" version="1.1" width="600" height="372" viewBox="0 0 600 372" xml:space="preserve">
<desc>Created with Fabric.js 3.6.6</desc>
<defs>
</defs>
<g transform="matrix(1 0 0 1 300.5 188)"  >
<g style=""   >
		<g transform="matrix(1 0 0 1 0 0)"  >
<path style="stroke: none; stroke-width: 1; stroke-dasharray: none; stroke-linecap: butt; stroke-dashoffset: 0; stroke-linejoin: miter; stroke-miterlimit: 10; fill: rgb(206,198,125); fill-rule: nonzero; opacity: 1;"  transform=" translate(-300, -186)" d="M 0 375 v -378 h 600 v 378 z" stroke-linecap="round" />
</g>
		<g transform="matrix(1 0 0 1 275 157.5)"  >
<path style="stroke: none; stroke-width: 1; stroke-dasharray: none; stroke-linecap: butt; stroke-dashoffset: 0; stroke-linejoin: miter; stroke-miterlimit: 10; fill: rgb(232,223,142); fill-rule: nonzero; opacity: 1;"  transform=" translate(-575, -343.5)" d="M 589.22 343.5 c 0 9.89478 -6.367 17.9172 -14.22 17.9172 c -7.853 0 -14.22 -8.02242 -14.22 -17.9172 c 0 -9.89478 6.367 -17.9172 14.22 -17.9172 c 7.853 0 14.22 8.02242 14.22 17.9172 z" stroke-linecap="round" />
</g>
		<g transform="matrix(1 0 0 1 275 94.5)"  >
<path style="stroke: rgb(181,174,110); stroke-width: 5; stroke-dasharray: none; stroke-linecap: butt; stroke-dashoffset: 0; stroke-linejoin: miter; stroke-miterlimit: 10; fill: rgb(181,174,110); fill-rule: nonzero; opacity: 1;"  transform=" translate(-575, -280.5)" d="M 589.22 280.5 c 0 9.89478 -6.367 17.9172 -14.22 17.9172 c -7.853 0 -14.22 -8.02242 -14.22 -17.9172 c 0 -9.89478 6.367 -17.9172 14.22 -17.9172 c 7.853 0 14.22 8.02242 14.22 17.9172 z" stroke-linecap="round" />
</g>
		<g transform="matrix(1 0 0 1 225 94.5)"  >
<path style="stroke: none; stroke-width: 1; stroke-dasharray: none; stroke-linecap: butt; stroke-dashoffset: 0; stroke-linejoin: miter; stroke-miterlimit: 10; fill: rgb(232,223,142); fill-rule: nonzero; opacity: 1;"  transform=" translate(-525, -280.5)" d="M 539.22 280.5 c 0 9.89478 -6.367 17.9172 -14.22 17.9172 c -7.853 0 -14.22 -8.02242 -14.22 -17.9172 c 0 -9.89478 6.367 -17.9172 14.22 -17.9172 c 7.853 0 14.22 8.02242 14.22 17.9172 z" stroke-linecap="round" />
</g>
		<g transform="matrix(1 0 0 1 225 31.5)"  >
<path style="stroke: none; stroke-width: 1; stroke-dasharray: none; stroke-linecap: butt; stroke-dashoffset: 0; stroke-linejoin: miter; stroke-miterlimit: 10; fill: rgb(181,174,110); fill-rule: nonzero; opacity: 1;"  transform=" translate(-525, -217.5)" d="M 539.22 217.5 c 0 9.89478 -6.367 17.9172 -14.22 17.9172 c -7.853 0 -14.22 -8.02242 -14.22 -17.9172 c 0 -9.89478 6.367 -17.9172 14.22 -17.9172 c 7.853 0 14.22 8.02242 14.22 17.9172 z" stroke-linecap="round" />
</g>
		<g transform="matrix(1 0 0 1 175 31.5)"  >
<path style="stroke: rgb(181,174,110); stroke-width: 5; stroke-dasharray: none; stroke-linecap: butt; stroke-dashoffset: 0; stroke-linejoin: miter; stroke-miterlimit: 10; fill: rgb(181,174,110); fill-rule: nonzero; opacity: 1;"  transform=" translate(-475, -217.5)" d="M 489.22 217.5 c 0 9.89478 -6.367 17.9172 -14.22 17.9172 c -7.853 0 -14.22 -8.02242 -14.22 -17.9172 c 0 -9.89478 6.367 -17.9172 14.22 -17.9172 c 7.853 0 14.22 8.02242 14.22 17.9172 z" stroke-linecap="round" />
</g>
		<g transform="matrix(1 0 0 1 175 -31.5)"  >
<path style="stroke: none; stroke-width: 1; stroke-dasharray: none; stroke-linecap: butt; stroke-dashoffset: 0; stroke-linejoin: miter; stroke-miterlimit: 10; fill: rgb(181,174,110); fill-rule: nonzero; opacity: 1;"  transform=" translate(-475, -154.5)" d="M 489.22 154.5 c 0 9.89478 -6.367 17.9172 -14.22 17.9172 c -7.853 0 -14.22 -8.02242 -14.22 -17.9172 c 0 -9.89478 6.367 -17.9172 14.22 -17.9172 c 7.853 0 14.22 8.02242 14.22 17.9172 z" stroke-linecap="round" />
</g>
		<g transform="matrix(1 0 0 1 125 94.5)"  >
<path style="stroke: rgb(232,223,142); stroke-width: 5; stroke-dasharray: none; stroke-linecap: butt; stroke-dashoffset: 0; stroke-linejoin: miter; stroke-miterlimit: 10; fill: rgb(232,223,142); fill-rule: nonzero; opacity: 1;"  transform=" translate(-425, -280.5)" d="M 439.22 280.5 c 0 9.89478 -6.367 17.9172 -14.22 17.9172 c -7.853 0 -14.22 -8.02242 -14.22 -17.9172 c 0 -9.89478 6.367 -17.9172 14.22 -17.9172 c 7.853 0 14.22 8.02242 14.22 17.9172 z" stroke-linecap="round" />
</g>
		<g transform="matrix(1 0 0 1 175 157.5)"  >
<path style="stroke: none; stroke-width: 1; stroke-dasharray: none; stroke-linecap: butt; stroke-dashoffset: 0; stroke-linejoin: miter; stroke-miterlimit: 10; fill: rgb(232,223,142); fill-rule: nonzero; opacity: 1;"  transform=" translate(-475, -343.5)" d="M 489.22 343.5 c 0 9.89478 -6.367 17.9172 -14.22 17.9172 c -7.853 0 -14.22 -8.02242 -14.22 -17.9172 c 0 -9.89478 6.367 -17.9172 14.22 -17.9172 c 7.853 0 14.22 8.02242 14.22 17.9172 z" stroke-linecap="round" />
</g>
		<g transform="matrix(1 0 0 1 225 -94.5)"  >
<path style="stroke: none; stroke-width: 1; stroke-dasharray: none; stroke-linecap: butt; stroke-dashoffset: 0; stroke-linejoin: miter; stroke-miterlimit: 10; fill: rgb(181,174,110); fill-rule: nonzero; opacity: 1;"  transform=" translate(-525, -91.5)" d="M 589.22 154.5 c 0 9.89478 -6.367 17.9172 -14.22 17.9172 c -7.853 0 -14.22 -8.02242 -14.22 -17.9172 c 0 -9.89478 6.367 -17.9172 14.22 -17.9172 c 7.853 0 14.22 8.02242 14.22 17.9172 z M 589.22 91.5 c 0 9.89478 -6.367 17.9172 -14.22 17.9172 c -7.853 0 -14.22 -8.02242 -14.22 -17.9172 c 0 -9.89478 6.367 -17.9172 14.22 -17.9172 c 7.853 0 14.22 8.02242 14.22 17.9172 z M 539.22 91.5 c 0 9.89478 -6.367 17.9172 -14.22 17.9172 c -7.853 0 -14.22 -8.02242 -14.22 -17.9172 c 0 -9.89478 6.367 -17.9172 14.22 -17.9172 c 7.853 0 14.22 8.02242 14.22 17.9172 z M 589.22 28.5 c 0 9.89478 -6.367 17.9172 -14.22 17.9172 c -7.853 0 -14.22 -8.02242 -14.22 -17.9172 c 0 -9.89478 6.367 -17.9172 14.22 -17.9172 c 7.853 0 14.22 8.02242 14.22 17.9172 z M 489.22 28.5 c 0 9.89478 -6.367 17.9172 -14.22 17.9172 c -7.853 0 -14.22 -8.02242 -14.22 -17.9172 c 0 -9.89478 6.367 -17.9172 14.22 -17.9172 c 7.853 0 14.22 8.02242 14.22 17.9172 z" stroke-linecap="round" />
</g>
		<g transform="matrix(1 0 0 1 125 -94.5)"  >
<path style="stroke: rgb(181,174,110); stroke-width: 5; stroke-dasharray: none; stroke-linecap: butt; stroke-dashoffset: 0; stroke-linejoin: miter; stroke-miterlimit: 10; fill: rgb(181,174,110); fill-rule: nonzero; opacity: 1;"  transform=" translate(-425, -91.5)" d="M 439.22 91.5 c 0 9.89478 -6.367 17.9172 -14.22 17.9172 c -7.853 0 -14.22 -8.02242 -14.22 -17.9172 c 0 -9.89478 6.367 -17.9172 14.22 -17.9172 c 7.853 0 14.22 8.02242 14.22 17.9172 z" stroke-linecap="round" />
</g>
		<g transform="matrix(1 0 0 1 50 -126)"  >
<path style="stroke: none; stroke-width: 1; stroke-dasharray: none; stroke-linecap: butt; stroke-dashoffset: 0; stroke-linejoin: miter; stroke-miterlimit: 10; fill: rgb(181,174,110); fill-rule: nonzero; opacity: 1;"  transform=" translate(-350, -60)" d="M 389.22 91.5 c 0 9.89478 -6.367 17.9172 -14.22 17.9172 c -7.853 0 -14.22 -8.02242 -14.22 -17.9172 c 0 -9.89478 6.367 -17.9172 14.22 -17.9172 c 7.853 0 14.22 8.02242 14.22 17.9172 z M 389.22 28.5 c 0 9.89478 -6.367 17.9172 -14.22 17.9172 c -7.853 0 -14.22 -8.02242 -14.22 -17.9172 c 0 -9.89478 6.367 -17.9172 14.22 -17.9172 c 7.853 0 14.22 8.02242 14.22 17.9172 z M 339.22 28.5 c 0 9.89478 -6.367 17.9172 -14.22 17.9172 c -7.853 0 -14.22 -8.02242 -14.22 -17.9172 c 0 -9.89478 6.367 -17.9172 14.22 -17.9172 c 7.853 0 14.22 8.02242 14.22 17.9172 z" stroke-linecap="round" />
</g>
		<g transform="matrix(1 0 0 1 25 -63)"  >
<path style="stroke: rgb(181,174,110); stroke-width: 5; stroke-dasharray: none; stroke-linecap: butt; stroke-dashoffset: 0; stroke-linejoin: miter; stroke-miterlimit: 10; fill: rgb(181,174,110); fill-rule: nonzero; opacity: 1;"  transform=" translate(-325, -123)" d="M 339.22 91.5 c 0 9.89478 -6.367 17.9172 -14.22 17.9172 c -7.853 0 -14.22 -8.02242 -14.22 -17.9172 c 0 -9.89478 6.367 -17.9172 14.22 -17.9172 c 7.853 0 14.22 8.02242 14.22 17.9172 z M 339.22 154.5 c 0 9.89478 -6.367 17.9172 -14.22 17.9172 c -7.853 0 -14.22 -8.02242 -14.22 -17.9172 c 0 -9.89478 6.367 -17.9172 14.22 -17.9172 c 7.853 0 14.22 8.02242 14.22 17.9172 z" stroke-linecap="round" />
</g>
		<g transform="matrix(1 0 0 1 -25 -31.5)"  >
<path style="stroke: none; stroke-width: 1; stroke-dasharray: none; stroke-linecap: butt; stroke-dashoffset: 0; stroke-linejoin: miter; stroke-miterlimit: 10; fill: rgb(181,174,110); fill-rule: nonzero; opacity: 1;"  transform=" translate(-275, -154.5)" d="M 289.22 154.5 c 0 9.89478 -6.367 17.9172 -14.22 17.9172 c -7.853 0 -14.22 -8.02242 -14.22 -17.9172 c 0 -9.89478 6.367 -17.9172 14.22 -17.9172 c 7.853 0 14.22 8.02242 14.22 17.9172 z" stroke-linecap="round" />
</g>
		<g transform="matrix(1 0 0 1 50 94.5)"  >
<path style="stroke: none; stroke-width: 1; stroke-dasharray: none; stroke-linecap: butt; stroke-dashoffset: 0; stroke-linejoin: miter; stroke-miterlimit: 10; fill: rgb(232,223,142); fill-rule: nonzero; opacity: 1;"  transform=" translate(-350, -280.5)" d="M 389.22 217.5 c 0 9.89478 -6.367 17.9172 -14.22 17.9172 c -7.853 0 -14.22 -8.02242 -14.22 -17.9172 c 0 -9.89478 6.367 -17.9172 14.22 -17.9172 c 7.853 0 14.22 8.02242 14.22 17.9172 z M 339.22 280.5 c 0 9.89478 -6.367 17.9172 -14.22 17.9172 c -7.853 0 -14.22 -8.02242 -14.22 -17.9172 c 0 -9.89478 6.367 -17.9172 14.22 -17.9172 c 7.853 0 14.22 8.02242 14.22 17.9172 z M 339.22 343.5 c 0 9.89478 -6.367 17.9172 -14.22 17.9172 c -7.853 0 -14.22 -8.02242 -14.22 -17.9172 c 0 -9.89478 6.367 -17.9172 14.22 -17.9172 c 7.853 0 14.22 8.02242 14.22 17.9172 z M 389.22 343.5 c 0 9.89478 -6.367 17.9172 -14.22 17.9172 c -7.853 0 -14.22 -8.02242 -14.22 -17.9172 c 0 -9.89478 6.367 -17.9172 14.22 -17.9172 c 7.853 0 14.22 8.02242 14.22 17.9172 z" stroke-linecap="round" />
</g>
		<g transform="matrix(1 0 0 1 -25 94.5)"  >
<path style="stroke: rgb(232,223,142); stroke-width: 5; stroke-dasharray: none; stroke-linecap: butt; stroke-dashoffset: 0; stroke-linejoin: miter; stroke-miterlimit: 10; fill: rgb(232,223,142); fill-rule: nonzero; opacity: 1;"  transform=" translate(-275, -280.5)" d="M 289.22 280.5 c 0 9.89478 -6.367 17.9172 -14.22 17.9172 c -7.853 0 -14.22 -8.02242 -14.22 -17.9172 c 0 -9.89478 6.367 -17.9172 14.22 -17.9172 c 7.853 0 14.22 8.02242 14.22 17.9172 z" stroke-linecap="round" />
</g>
		<g transform="matrix(1 0 0 1 -75 157.5)"  >
<path style="stroke: none; stroke-width: 1; stroke-dasharray: none; stroke-linecap: butt; stroke-dashoffset: 0; stroke-linejoin: miter; stroke-miterlimit: 10; fill: rgb(232,223,142); fill-rule: nonzero; opacity: 1;"  transform=" translate(-225, -343.5)" d="M 239.22 343.5 c 0 9.89478 -6.367 17.9172 -14.22 17.9172 c -7.853 0 -14.22 -8.02242 -14.22 -17.9172 c 0 -9.89478 6.367 -17.9172 14.22 -17.9172 c 7.853 0 14.22 8.02242 14.22 17.9172 z" stroke-linecap="round" />
</g>
		<g transform="matrix(1 0 0 1 -125 94.5)"  >
<path style="stroke: rgb(232,223,142); stroke-width: 5; stroke-dasharray: none; stroke-linecap: butt; stroke-dashoffset: 0; stroke-linejoin: miter; stroke-miterlimit: 10; fill: rgb(232,223,142); fill-rule: nonzero; opacity: 1;"  transform=" translate(-175, -280.5)" d="M 189.22 280.5 c 0 9.89478 -6.367 17.9172 -14.22 17.9172 c -7.853 0 -14.22 -8.02242 -14.22 -17.9172 c 0 -9.89478 6.367 -17.9172 14.22 -17.9172 c 7.853 0 14.22 8.02242 14.22 17.9172 z" stroke-linecap="round" />
</g>
		<g transform="matrix(1 0 0 1 -100 0)"  >
<path style="stroke: none; stroke-width: 1; stroke-dasharray: none; stroke-linecap: butt; stroke-dashoffset: 0; stroke-linejoin: miter; stroke-miterlimit: 10; fill: rgb(232,223,142); fill-rule: nonzero; opacity: 1;"  transform=" translate(-200, -186)" d="M 189.22 217.5 c 0 9.89478 -6.367 17.9172 -14.22 17.9172 c -7.853 0 -14.22 -8.02242 -14.22 -17.9172 c 0 -9.89478 6.367 -17.9172 14.22 -17.9172 c 7.853 0 14.22 8.02242 14.22 17.9172 z M 239.22 217.5 c 0 9.89478 -6.367 17.9172 -14.22 17.9172 c -7.853 0 -14.22 -8.02242 -14.22 -17.9172 c 0 -9.89478 6.367 -17.9172 14.22 -17.9172 c 7.853 0 14.22 8.02242 14.22 17.9172 z M 189.22 154.5 c 0 9.89478 -6.367 17.9172 -14.22 17.9172 c -7.853 0 -14.22 -8.02242 -14.22 -17.9172 c 0 -9.89478 6.367 -17.9172 14.22 -17.9172 c 7.853 0 14.22 8.02242 14.22 17.9172 z" stroke-linecap="round" />
</g>
		<g transform="matrix(1 0 0 1 -175 -31.5)"  >
<path style="stroke: rgb(232,223,142); stroke-width: 5; stroke-dasharray: none; stroke-linecap: butt; stroke-dashoffset: 0; stroke-linejoin: miter; stroke-miterlimit: 10; fill: rgb(232,223,142); fill-rule: nonzero; opacity: 1;"  transform=" translate(-125, -154.5)" d="M 139.22 154.5 c 0 9.89478 -6.367 17.9172 -14.22 17.9172 c -7.853 0 -14.22 -8.02242 -14.22 -17.9172 c 0 -9.89478 6.367 -17.9172 14.22 -17.9172 c 7.853 0 14.22 8.02242 14.22 17.9172 z" stroke-linecap="round" />
</g>
		<g transform="matrix(1 0 0 1 -125 -94.5)"  >
<path style="stroke: none; stroke-width: 1; stroke-dasharray: none; stroke-linecap: butt; stroke-dashoffset: 0; stroke-linejoin: miter; stroke-miterlimit: 10; fill: rgb(232,223,142); fill-rule: nonzero; opacity: 1;"  transform=" translate(-175, -91.5)" d="M 189.22 91.5 c 0 9.89478 -6.367 17.9172 -14.22 17.9172 c -7.853 0 -14.22 -8.02242 -14.22 -17.9172 c 0 -9.89478 6.367 -17.9172 14.22 -17.9172 c 7.853 0 14.22 8.02242 14.22 17.9172 z" stroke-linecap="round" />
</g>
		<g transform="matrix(1 0 0 1 -75 -94.5)"  >
<path style="stroke: rgb(181,174,110); stroke-width: 5; stroke-dasharray: none; stroke-linecap: butt; stroke-dashoffset: 0; stroke-linejoin: miter; stroke-miterlimit: 10; fill: rgb(181,174,110); fill-rule: nonzero; opacity: 1;"  transform=" translate(-225, -91.5)" d="M 239.22 91.5 c 0 9.89478 -6.367 17.9172 -14.22 17.9172 c -7.853 0 -14.22 -8.02242 -14.22 -17.9172 c 0 -9.89478 6.367 -17.9172 14.22 -17.9172 c 7.853 0 14.22 8.02242 14.22 17.9172 z" stroke-linecap="round" />
</g>
		<g transform="matrix(1 0 0 1 -175 -157.5)"  >
<path style="stroke: none; stroke-width: 1; stroke-dasharray: none; stroke-linecap: butt; stroke-dashoffset: 0; stroke-linejoin: miter; stroke-miterlimit: 10; fill: rgb(181,174,110); fill-rule: nonzero; opacity: 1;"  transform=" translate(-125, -28.5)" d="M 239.22 28.5 c 0 9.89478 -6.367 17.9172 -14.22 17.9172 c -7.853 0 -14.22 -8.02242 -14.22 -17.9172 c 0 -9.89478 6.367 -17.9172 14.22 -17.9172 c 7.853 0 14.22 8.02242 14.22 17.9172 z M 139.22 28.5 c 0 9.89478 -6.367 17.9172 -14.22 17.9172 c -7.853 0 -14.22 -8.02242 -14.22 -17.9172 c 0 -9.89478 6.367 -17.9172 14.22 -17.9172 c 7.853 0 14.22 8.02242 14.22 17.9172 z M 89.22 28.5 c 0 9.89478 -6.367 17.9172 -14.22 17.9172 c -7.853 0 -14.22 -8.02242 -14.22 -17.9172 c 0 -9.89478 6.367 -17.9172 14.22 -17.9172 c 7.853 0 14.22 8.02242 14.22 17.9172 z M 39.22 28.5 c 0 9.89478 -6.367 17.9172 -14.22 17.9172 c -7.853 0 -14.22 -8.02242 -14.22 -17.9172 c 0 -9.89478 6.367 -17.9172 14.22 -17.9172 c 7.853 0 14.22 8.02242 14.22 17.9172 z" stroke-linecap="round" />
</g>
		<g transform="matrix(1 0 0 1 -275 -94.5)"  >
<path style="stroke: none; stroke-width: 1; stroke-dasharray: none; stroke-linecap: butt; stroke-dashoffset: 0; stroke-linejoin: miter; stroke-miterlimit: 10; fill: rgb(232,223,142); fill-rule: nonzero; opacity: 1;"  transform=" translate(-25, -91.5)" d="M 39.22 91.5 c 0 9.89478 -6.367 17.9172 -14.22 17.9172 c -7.853 0 -14.22 -8.02242 -14.22 -17.9172 c 0 -9.89478 6.367 -17.9172 14.22 -17.9172 c 7.853 0 14.22 8.02242 14.22 17.9172 z" stroke-linecap="round" />
</g>
		<g transform="matrix(1 0 0 1 -225 -94.5)"  >
<path style="stroke: none; stroke-width: 1; stroke-dasharray: none; stroke-linecap: butt; stroke-dashoffset: 0; stroke-linejoin: miter; stroke-miterlimit: 10; fill: rgb(181,174,110); fill-rule: nonzero; opacity: 1;"  transform=" translate(-75, -91.5)" d="M 89.22 91.5 c 0 9.89478 -6.367 17.9172 -14.22 17.9172 c -7.853 0 -14.22 -8.02242 -14.22 -17.9172 c 0 -9.89478 6.367 -17.9172 14.22 -17.9172 c 7.853 0 14.22 8.02242 14.22 17.9172 z" stroke-linecap="round" />
</g>
		<g transform="matrix(1 0 0 1 -225 63)"  >
<path style="stroke: none; stroke-width: 1; stroke-dasharray: none; stroke-linecap: butt; stroke-dashoffset: 0; stroke-linejoin: miter; stroke-miterlimit: 10; fill: rgb(232,223,142); fill-rule: nonzero; opacity: 1;"  transform=" translate(-75, -249)" d="M 39.22 154.5 c 0 9.89478 -6.367 17.9172 -14.22 17.9172 c -7.853 0 -14.22 -8.02242 -14.22 -17.9172 c 0 -9.89478 6.367 -17.9172 14.22 -17.9172 c 7.853 0 14.22 8.02242 14.22 17.9172 z M 89.22 217.5 c 0 9.89478 -6.367 17.9172 -14.22 17.9172 c -7.853 0 -14.22 -8.02242 -14.22 -17.9172 c 0 -9.89478 6.367 -17.9172 14.22 -17.9172 c 7.853 0 14.22 8.02242 14.22 17.9172 z M 139.22 280.5 c 0 9.89478 -6.367 17.9172 -14.22 17.9172 c -7.853 0 -14.22 -8.02242 -14.22 -17.9172 c 0 -9.89478 6.367 -17.9172 14.22 -17.9172 c 7.853 0 14.22 8.02242 14.22 17.9172 z M 139.22 343.5 c 0 9.89478 -6.367 17.9172 -14.22 17.9172 c -7.853 0 -14.22 -8.02242 -14.22 -17.9172 c 0 -9.89478 6.367 -17.9172 14.22 -17.9172 c 7.853 0 14.22 8.02242 14.22 17.9172 z M 89.22 343.5 c 0 9.89478 -6.367 17.9172 -14.22 17.9172 c -7.853 0 -14.22 -8.02242 -14.22 -17.9172 c 0 -9.89478 6.367 -17.9172 14.22 -17.9172 c 7.853 0 14.22 8.02242 14.22 17.9172 z M 39.22 343.5 c 0 9.89478 -6.367 17.9172 -14.22 17.9172 c -7.853 0 -14.22 -8.02242 -14.22 -17.9172 c 0 -9.89478 6.367 -17.9172 14.22 -17.9172 c 7.853 0 14.22 8.02242 14.22 17.9172 z M 39.22 280.5 c 0 9.89478 -6.367 17.9172 -14.22 17.9172 c -7.853 0 -14.22 -8.02242 -14.22 -17.9172 c 0 -9.89478 6.367 -17.9172 14.22 -17.9172 c 7.853 0 14.22 8.02242 14.22 17.9172 z" stroke-linecap="round" />
</g>
		<g transform="matrix(1 0 0 1 0 0)"  >
<path style="stroke: rgb(0,0,0); stroke-opacity: 0.15; stroke-width: 18; stroke-dasharray: none; stroke-linecap: butt; stroke-dashoffset: 0; stroke-linejoin: miter; stroke-miterlimit: 10; fill: none; fill-rule: nonzero; opacity: 1;"  transform=" translate(-300, -186)" d="M 105.833 118.48081 c 0 -6.21395 4.608 -11.25247 10.292 -11.25247 h 20.583 c 5.146 0 7.719 2.81339 10.292 5.62678 l 10.291 11.25247 c 2.573 2.81339 5.146 5.62678 10.292 5.62678 h 30.874 c 5.146 0 7.72 -2.81339 10.292 -5.62678 l 10.292 -11.25247 c 2.573 -2.81339 5.145 -5.62678 10.291 -5.62678 h 254.543 c 5.684 0 10.292 5.03852 10.292 11.25356 v 112.53016 c 0 6.21505 -4.608 11.25356 -10.292 11.25356 h -254.543 c -5.146 0 -7.718 2.81339 -10.291 5.62678 l -10.292 11.25247 c -2.573 2.81339 -5.146 5.62678 -10.292 5.62678 h -30.874 c -5.146 0 -7.719 -2.81339 -10.292 -5.62678 l -10.291 -11.25247 c -2.573 -2.81339 -5.146 -5.62678 -10.292 -5.62678 h -20.583 c -5.684 0 -10.292 -5.03852 -10.292 -11.25356 z" stroke-linecap="round" />
</g>
		<g transform="matrix(1 0 0 1 0 0)"  >
<path style="stroke: rgb(255,255,255); stroke-width: 8; stroke-dasharray: none; stroke-linecap: butt; stroke-dashoffset: 0; stroke-linejoin: miter; stroke-miterlimit: 10; fill: rgb(255,255,255); fill-rule: nonzero; opacity: 1;"  transform=" translate(-300, -186)" d="M 105.833 121.90941 c 0 -5.89841 4.608 -10.68107 10.292 -10.68107 h 20.583 c 5.146 0 7.719 2.67053 10.292 5.34106 l 10.291 10.68107 c 2.573 2.67053 5.146 5.34106 10.292 5.34106 h 30.874 c 5.146 0 7.72 -2.67053 10.292 -5.34106 l 10.292 -10.68107 c 2.573 -2.67053 5.145 -5.34106 10.291 -5.34106 h 254.543 c 5.684 0 10.292 4.78266 10.292 10.68211 v 106.81592 c 0 5.89945 -4.608 10.68211 -10.292 10.68211 h -254.543 c -5.146 0 -7.718 2.67053 -10.291 5.34106 l -10.292 10.68107 c -2.573 2.67053 -5.146 5.34106 -10.292 5.34106 h -30.874 c -5.146 0 -7.719 -2.67053 -10.292 -5.34106 l -10.291 -10.68107 c -2.573 -2.67053 -5.146 -5.34106 -10.292 -5.34106 h -20.583 c -5.684 0 -10.292 -4.78266 -10.292 -10.68211 z" stroke-linecap="round" />
</g>
		<g transform="matrix(1 0 0 1 51.98 -11.64)"  >
<path style="stroke: rgb(255,255,255); stroke-width: 8; stroke-dasharray: none; stroke-linecap: butt; stroke-dashoffset: 0; stroke-linejoin: miter; stroke-miterlimit: 10; fill: rgb(185,178,113); fill-rule: nonzero; opacity: 1;"  transform=" translate(-351.98, -174.36)" d="M 268.819 125.22768 h 166.33 c 21.536 0 38.994 21.99582 38.994 49.13118 c 0 27.1341 -17.458 49.13118 -38.994 49.13118 h -166.329 c -21.536 0 -38.994 -21.99708 -38.994 -49.13118 c 0 -27.13536 17.458 -49.13118 38.994 -49.13118 z" stroke-linecap="round" />
</g>
		<g transform="matrix(1 0 0 1 -130.93 -2.58)"  >
<path style="stroke: rgb(185,178,113); stroke-width: 5.17563; stroke-dasharray: none; stroke-linecap: butt; stroke-dashoffset: 0; stroke-linejoin: miter; stroke-miterlimit: 10; fill: rgb(185,178,113); fill-rule: nonzero; opacity: 1;"  transform=" translate(-169.07, -183.42)" d="M 163.346 147.69222 h 5.728 l -17.521 71.4546 h -5.729 z M 186.596 147.69222 h 5.728 l -17.522 71.4546 h -5.728 z" stroke-linecap="round" />
</g>
</g>
</g>
</svg>