<?xml version="1.0" encoding="UTF-8" standalone="no" ?>
<!DOCTYPE svg PUBLIC "-//W3C//DTD SVG 1.1//EN" "http://www.w3.org/Graphics/SVG/1.1/DTD/svg11.dtd">
<svg xmlns="http://www.w3.org/2000/svg" xmlns:xlink="http://www.w3.org/1999/xlink" version="1.1" width="600" height="372" viewBox="0 0 600 372" xml:space="preserve">
<desc>Created with Fabric.js 3.6.6</desc>
<defs>
</defs>
<g transform="matrix(1 0 0 1 300.14 217)"  >
<g style=""   >
		<g transform="matrix(1 0 0 1 -8.18 -30.32)"  >
<path style="stroke: none; stroke-width: 1; stroke-dasharray: none; stroke-linecap: butt; stroke-dashoffset: 0; stroke-linejoin: miter; stroke-miterlimit: 10; fill: rgb(15,189,140); fill-rule: nonzero; opacity: 1;"  transform=" translate(-299.32, -186.18)" d="M -7.33133 371.81827 v -371.27954 h 613.30817 v 371.27954 z" stroke-linecap="round" />
</g>
		<g transform="matrix(1 0 0 1 61.55 50.41)"  >
<path style="stroke: rgb(0,0,0); stroke-opacity: 0.13; stroke-width: 10; stroke-dasharray: none; stroke-linecap: butt; stroke-dashoffset: 0; stroke-linejoin: miter; stroke-miterlimit: 10; fill: rgb(255,255,255); fill-rule: nonzero; opacity: 1;"  transform=" translate(-369.05, -266.91)" d="M 379.07326 259.63121 l -11.45149 -10.1842 c -0.63368 -0.56792 -0.90802 -1.55371 -0.68743 -2.47013 c 0.22059 -0.91643 0.88941 -1.56941 1.67588 -1.63622 l 37.99751 -3.16825 l 0.30665 0.00743 c 1.03257 0.11945 1.79034 1.22849 1.69375 2.47891 l -3.50403 44.93225 c -0.07328 0.95006 -0.62926 1.74334 -1.39156 1.98549 c -0.76231 0.24215 -1.56833 -0.11846 -2.01741 -0.90259 l -6.90278 -12.02451 c -1.96872 1.8861 -4.33098 3.68309 -6.97536 5.27217 c -6.89972 4.15214 -15.8254 6.95283 -24.87578 6.29195 c -9.13829 -0.66583 -18.40333 -4.83901 -25.86934 -14.65564 c -2.72104 -3.57295 -5.19676 -7.89464 -7.32801 -13.0579 c -0.46332 -0.94317 -0.30515 -2.15227 0.37622 -2.87593 c 0.68137 -0.72366 1.6921 -0.75602 2.40411 -0.07698 c 10.98435 10.46637 20.46098 12.77202 28.44523 11.10745 c 7.13584 -1.48759 13.1943 -6.15581 18.10486 -11.02205 z" stroke-linecap="round" />
</g>
		<g transform="matrix(1 0 0 1 61.55 50.41)"  >
<path style="stroke: none; stroke-width: 1; stroke-dasharray: none; stroke-linecap: butt; stroke-dashoffset: 0; stroke-linejoin: miter; stroke-miterlimit: 10; fill: rgb(255,255,255); fill-rule: nonzero; opacity: 1;"  transform=" translate(-369.05, -266.91)" d="M 379.07326 259.63121 l -11.45149 -10.1842 c -0.63368 -0.56792 -0.90802 -1.55371 -0.68743 -2.47013 c 0.22059 -0.91643 0.88941 -1.56941 1.67588 -1.63622 l 37.99751 -3.16825 l 0.30665 0.00743 c 1.03257 0.11945 1.79034 1.22849 1.69375 2.47891 l -3.50403 44.93101 c -0.07328 0.95006 -0.62926 1.74334 -1.39156 1.98549 c -0.76231 0.24215 -1.56833 -0.11846 -2.01741 -0.90259 l -6.90278 -12.02327 c -1.96872 1.8861 -4.33098 3.68309 -6.97536 5.27217 c -6.89972 4.15214 -15.8254 6.95283 -24.87578 6.29195 c -9.13829 -0.66583 -18.40333 -4.83901 -25.86934 -14.65564 c -2.72104 -3.57295 -5.19676 -7.89464 -7.32801 -13.0579 c -0.46332 -0.94317 -0.30515 -2.15227 0.37622 -2.87593 c 0.68137 -0.72366 1.6921 -0.75602 2.40411 -0.07698 c 10.98435 10.46637 20.46098 12.77202 28.44523 11.10745 c 7.13584 -1.48759 13.1943 -6.15581 18.10384 -11.02205 z" stroke-linecap="round" />
</g>
		<g transform="matrix(1 0 0 1 116.77 -66.92)"  >
<path style="stroke: rgb(0,0,0); stroke-opacity: 0.13; stroke-width: 10; stroke-dasharray: none; stroke-linecap: butt; stroke-dashoffset: 0; stroke-linejoin: miter; stroke-miterlimit: 10; fill: rgb(255,255,255); fill-rule: nonzero; opacity: 1;"  transform=" translate(-424.27, -149.58)" d="M 383.73134 106.54151 h 81.248 c 1.43461 0.00013 2.80224 0.73494 3.76487 2.02281 c 0.96263 1.28787 1.43042 3.00862 1.28777 4.73696 l -7.51507 90.98824 c -0.60598 7.33333 -5.70271 12.91779 -11.78983 12.91805 h -52.7445 c -6.08673 -0.0009 -11.18286 -5.58519 -11.78881 -12.91805 l -7.51507 -90.98824 c -0.14265 -1.72834 0.32515 -3.44909 1.28777 -4.73696 c 0.96263 -1.28787 2.33026 -2.02267 3.76487 -2.02281 z M 429.43302 178.26901 v -40.98679 c 0 -3.39566 -2.27358 -6.14839 -5.07819 -6.14839 c -2.80461 0 -5.07819 2.75273 -5.07819 6.14839 v 40.98679 c 0 3.39566 2.27358 6.14839 5.07819 6.14839 c 2.80461 0 5.07819 -2.75273 5.07819 -6.14839 z M 446.36032 178.26901 v -40.98679 c 0 -3.39566 -2.27358 -6.14839 -5.07819 -6.14839 c -2.80461 0 -5.07819 2.75273 -5.07819 6.14839 v 40.98679 c -0.02598 2.21717 0.93609 4.27952 2.51781 5.39729 c 1.58172 1.11777 3.53801 1.11777 5.11973 0 c 1.58172 -1.11777 2.5438 -3.18012 2.51781 -5.39729 z M 412.50571 178.26901 v -40.98679 c 0.02598 -2.21717 -0.93609 -4.27952 -2.51781 -5.39729 c -1.58172 -1.11777 -3.53801 -1.11777 -5.11973 0 c -1.58172 1.11777 -2.5438 3.18012 -2.51781 5.39729 v 40.98679 c 0 3.39566 2.27358 6.14839 5.07819 6.14839 c 2.80461 0 5.07819 -2.75273 5.07819 -6.14839 z M 380.34588 112.68867 h 88.0179 z M 380.34588 104.49205 h 88.0179 c 3.70675 0.05515 6.68773 3.70897 6.68773 8.19723 c 0 4.48826 -2.98098 8.14209 -6.68773 8.19723 h -88.0179 c -2.43866 0.03628 -4.70501 -1.51812 -5.93307 -4.06926 c -1.22806 -2.55114 -1.22806 -5.70479 0 -8.25594 c 1.22806 -2.55114 3.49441 -4.10554 5.93307 -4.06926 z M 432.81848 106.54151 v -10.24732 c 0 -1.1324 -0.75846 -2.04946 -1.69273 -2.04946 h -13.54184 c -0.93427 0 -1.69273 0.9183 -1.69273 2.04946 v 10.24732 z M 417.58391 81.94796 h 13.54184 c 6.544 0 11.84809 6.42314 11.84809 14.34624 v 22.54286 h -37.23803 v -22.54286 c 0 -7.92311 5.30512 -14.34624 11.84809 -14.34624 z" stroke-linecap="round" />
</g>
		<g transform="matrix(1 0 0 1 116.77 -66.92)"  >
<path style="stroke: none; stroke-width: 1; stroke-dasharray: none; stroke-linecap: butt; stroke-dashoffset: 0; stroke-linejoin: miter; stroke-miterlimit: 10; fill: rgb(255,255,255); fill-rule: nonzero; opacity: 1;"  transform=" translate(-424.27, -149.58)" d="M 383.73134 106.54151 h 81.248 c 1.43461 0.00013 2.80224 0.73494 3.76487 2.02281 c 0.96263 1.28787 1.43042 3.00862 1.28777 4.73696 l -7.51507 90.98824 c -0.60598 7.33333 -5.70271 12.91779 -11.78983 12.91805 h -52.7445 c -6.08673 -0.0009 -11.18286 -5.58519 -11.78881 -12.91805 l -7.51507 -90.98824 c -0.14265 -1.72834 0.32515 -3.44909 1.28777 -4.73696 c 0.96263 -1.28787 2.33026 -2.02267 3.76487 -2.02281 z M 429.43302 178.26901 v -40.98679 c 0 -3.39566 -2.27358 -6.14839 -5.07819 -6.14839 c -2.80461 0 -5.07819 2.75273 -5.07819 6.14839 v 40.98679 c 0 3.39566 2.27358 6.14839 5.07819 6.14839 c 2.80461 0 5.07819 -2.75273 5.07819 -6.14839 z M 446.36032 178.26901 v -40.98679 c 0 -3.39566 -2.27358 -6.14839 -5.07819 -6.14839 c -2.80461 0 -5.07819 2.75273 -5.07819 6.14839 v 40.98679 c -0.02598 2.21717 0.93609 4.27952 2.51781 5.39729 c 1.58172 1.11777 3.53801 1.11777 5.11973 0 c 1.58172 -1.11777 2.5438 -3.18012 2.51781 -5.39729 z M 412.50571 178.26901 v -40.98679 c 0.02598 -2.21717 -0.93609 -4.27952 -2.51781 -5.39729 c -1.58172 -1.11777 -3.53801 -1.11777 -5.11973 0 c -1.58172 1.11777 -2.5438 3.18012 -2.51781 5.39729 v 40.98679 c 0 3.39566 2.27358 6.14839 5.07819 6.14839 c 2.80461 0 5.07819 -2.75273 5.07819 -6.14839 z M 380.34588 112.68867 h 88.0179 z M 380.34588 104.49205 h 88.0179 c 3.70675 0.05515 6.68773 3.70897 6.68773 8.19723 c 0 4.48826 -2.98098 8.14209 -6.68773 8.19723 h -88.0179 c -2.43866 0.03628 -4.70501 -1.51812 -5.93307 -4.06926 c -1.22806 -2.55114 -1.22806 -5.70479 0 -8.25594 c 1.22806 -2.55114 3.49441 -4.10554 5.93307 -4.06926 z M 432.81848 106.54151 v -10.24732 c 0 -1.1324 -0.75846 -2.04946 -1.69273 -2.04946 h -13.54184 c -0.93427 0 -1.69273 0.9183 -1.69273 2.04946 v 10.24732 z M 417.58391 81.94796 h 13.54184 c 6.544 0 11.84809 6.42314 11.84809 14.345 v 22.54286 h -37.23803 v -22.54162 c 0 -7.92311 5.30512 -14.34624 11.84809 -14.34624 z" stroke-linecap="round" />
</g>
		<g transform="matrix(1 0 0 1 0 0)"  >
<path style="stroke: none; stroke-width: 1; stroke-dasharray: none; stroke-linecap: butt; stroke-dashoffset: 0; stroke-linejoin: miter; stroke-miterlimit: 10; fill: rgb(255,255,255); fill-opacity: 0.73; fill-rule: evenodd; opacity: 0.1;"  transform=" translate(-307.5, -216.5)" d="M 384.94978 380.08915 c 7.97607 31.65777 -122.92229 -37.62052 -148.35107 -61.80196 c -25.42878 -24.18391 -15.63629 -52.48036 2.77011 -41.50782 c 18.40742 10.97007 27.82273 -5.06797 7.81763 -23.73343 c -29.90082 -27.89918 -9.41428 -45.9248 16.55625 -33.17011 c 43.09717 21.16912 124.52814 93.58472 119.25369 107.92106 c -5.27445 14.33634 -79.01556 -39.77394 -77.72352 -15.37469 c 1.29101 24.39802 72.62591 39.6935 79.67691 67.66693 z M 250.34601 381.01982 c -3.32413 18.41918 -71.32876 -15.87839 -92.50221 -48.97177 c -23.9272 -37.40765 13.82397 -59.66091 33.57147 -23.98837 c 23.23211 41.97068 61.37068 59.43319 58.93074 72.96014 z M 29.01945 380.05449 c -29.85789 -35.06612 -77.28092 -57.21418 -55.42977 -76.56651 c 22.51352 -19.94019 65.69144 40.00166 62.91622 10.3092 c -2.82531 -30.2172 -74.02016 -53.02986 -44.41373 -60.49876 c 29.6095 -7.46891 83.89034 21.66169 119.63905 61.24875 c 35.74871 39.58583 14.1572 51.66602 -13.54184 33.61317 c -22.92137 -14.94029 -46.26184 -2.24377 -22.36122 22.778 c 33.73502 35.31487 51.48109 81.3523 31.61297 82.53544 c -19.12193 1.13859 -46.27615 -35.6614 -78.42167 -73.41929 z M 389.292 267.79565 c 5.87345 -34.7728 40.29026 14.06036 53.86277 23.15547 c 21.42797 14.35614 32.93874 -2.72272 9.00132 -21.22481 c -12.26412 -9.48 -7.78697 -26.27793 13.69313 -19.93771 c 14.81037 4.3712 39.80983 13.89823 69.36618 32.0637 c 37.82476 23.24457 41.3247 56.2142 -3.47541 34.64038 c -13.54389 -6.52462 -35.55756 3.65339 -14.75108 15.72988 c 43.03379 24.98093 77.67548 36.64034 75.48801 52.07567 c -2.20382 15.52567 -53.55407 8.54562 -108.17121 -9.40575 c -54.33604 -17.85855 -98.64346 -85.59726 -95.0137 -107.09682 z M 369.30122 249.32078 c -8.84595 -4.28457 -10.82489 -16.52318 -3.76571 -21.65055 c 7.05918 -5.12737 19.76283 -1.71036 19.76283 7.40826 c 0 9.11491 -3.29551 20.3981 -15.99712 14.24228 z M 11.84068 210.43296 c -8.53827 -23.93144 27.71949 -21.86713 45.11597 -28.73332 c 17.3004 -6.83154 -21.20411 -12.82028 -20.7707 -34.91884 c 0.38127 -19.52064 25.90512 -27.6925 58.72426 -24.48465 c 32.21299 3.14845 43.74114 18.6568 38.87658 32.15281 c -5.85198 16.23729 -38.05577 -1.88239 -38.72632 5.64964 c -1.21231 13.56408 43.15032 18.09617 62.40411 33.90772 c 23.03381 18.91793 2.59327 37.28884 -16.48368 26.39055 c -33.35068 -19.05407 -59.05238 -6.36992 -38.84081 3.14721 c 20.21464 9.51466 33.12886 13.41185 37.35456 28.20116 c 4.22774 14.7893 -13.58273 34.06119 -28.11302 18.28428 c -40.38634 -43.85059 -94.6958 -46.0201 -99.53992 -59.59532 z M 187.62912 251.55835 c -3.78104 -6.83649 -13.68393 -18.70011 -9.30388 -23.28294 c 4.38106 -4.58159 19.29672 -5.1645 28.23466 7.36371 c 6.89358 9.66069 6.69221 16.62466 0.20648 22.08494 c -8.35121 7.02956 -15.35519 0.6683 -19.13726 -6.16695 z M 206.36773 182.46323 c -16.89051 -4.88851 -35.36948 -21.15303 -40.52025 -38.05244 c -9.66983 -31.71346 -24.80832 -45.56095 -41.65794 -51.3195 c -25.89592 -8.84883 2.97148 -40.69224 39.1771 -18.77437 c 7.97709 4.82911 23.07265 17.89196 26.25572 27.41033 c 5.27138 15.77196 14.26453 7.95528 8.13962 -4.3811 c -17.48337 -35.20968 23.49175 -26.28535 26.76272 24.14926 c 1.74895 26.95489 24.01817 26.92272 33.32308 40.68976 c 8.61187 12.7485 -13.02564 31.40901 -51.48007 20.27805 z M 91.78847 80.26111 c -10.9128 16.89322 -46.80155 -8.07285 -87.58756 38.01655 c -28.62718 32.34835 -56.51635 -3.43434 -23.17896 -24.47103 c 19.40916 -12.24727 32.38267 -30.03528 17.39444 -28.79149 c -14.98925 1.24007 -29.81087 12.42796 -35.80084 -4.18927 c -5.30716 -14.72371 18.06806 -33.5711 49.60641 -29.46722 c 16.70243 2.17446 27.3975 -12.8933 12.351 -18.1172 c -40.34443 -13.99724 6.59102 -35.90768 59.24046 -14.81034 c 34.26859 13.73363 38.83161 41.76895 8.68036 41.38901 c -30.14921 -0.37871 -64.41985 3.06182 -47.78897 9.84015 c 16.63087 6.77833 61.66098 8.0382 47.08469 30.60086 z M 243.01187 25.56173 c 7.97812 19.72484 20.22384 57.55452 7.80741 66.82289 c -18.05579 13.48364 -19.31921 -51.0893 -73.38846 -56.99141 c -43.88527 -4.78951 -36.8772 -29.664 -25.05875 -32.9721 c 11.81947 -3.31181 37.33616 11.48491 31.13357 -6.67808 c -6.20361 -18.163 37.98422 -23.39061 59.50623 29.81994 z M 565.79698 266.36622 c -22.59632 -4.69916 -105.89686 -55.60654 -92.31515 -81.77679 c 13.58069 -26.16902 44.17148 19.31272 50.4262 8.34636 c 14.4015 -25.24701 -65.57287 -36.72573 -68.5423 -60.64851 c -2.96739 -23.92278 64.94729 -8.59883 96.03384 19.7694 c 31.08552 28.36576 50.8136 58.83791 24.3422 61.16954 c -26.46834 2.3304 9.77204 26.12447 19.07797 33.58471 c 15.00765 12.02946 7.02442 27.05638 -29.02174 19.55529 z M 331.18412 221.53669 c -27.84624 -28.53407 -57.95558 -22.39063 -57.53853 -41.84692 c 0.53971 -25.10469 28.42172 -10.65572 31.36765 -20.91046 c 3.73096 -12.99478 -54.53741 -27.35588 -38.97062 -49.02994 c 16.08401 -22.40053 61.52197 12.09134 67.49048 -0.8985 c 8.13042 -17.70261 -57.20428 -12.68415 -51.00271 -40.08334 c 7.96687 -35.22948 124.90634 30.69244 143.2095 49.72547 c 18.30418 19.03426 12.47367 48.03862 -20.56933 23.43269 c -33.04198 -24.6047 -41.15911 0.36757 -18.89705 13.99724 c 30.15636 18.46621 57.78385 48.02501 52.2743 61.24256 c -11.45966 27.48706 -80.7318 -56.29588 -103.45998 -40.16626 c -7.52325 5.339 5.07001 10.51959 9.9683 15.92913 c 21.16527 23.37081 -2.36533 40.4014 -13.87099 28.60833 z M 552.80302 49.94614 c 27.03462 -3.19548 -60.00505 -35.13542 -56.04921 -53.49891 c 3.95584 -18.36349 76.38447 10.35622 97.16539 31.14045 c 32.73839 32.73819 15.36848 46.54237 0 48.15001 c -31.22454 3.26726 29.44186 50.86035 52.52065 65.23382 c 23.07981 14.37099 -17.80434 20.22607 -56.93033 2.66207 c -24.86658 -11.16685 -89.67792 -52.69942 -96.6727 -97.25049 c -3.26893 -20.83126 32.93158 6.75605 59.96621 3.56305 z M 397.39687 62.37534 c -68.35831 -41.36797 -117.35856 -37.26409 -131.89294 -56.88003 c -15.56167 -21.00823 24.93098 -25.20493 93.28928 0 c 38.23976 14.09872 28.46977 -2.59524 14.20728 -10.29558 c -9.91822 -5.35509 -10.75129 -19.64069 21.29917 -14.66307 c 31.74994 4.92812 57.89731 21.06393 66.35994 27.87814 c 34.0386 27.40909 19.70355 42.29245 -13.2587 22.92032 c -12.13021 -7.13104 -27.22475 2.16951 -14.61922 9.14833 c 28.14573 15.58136 57.06424 63.61256 27.74402 55.99391 c -22.48081 -5.84146 -42.01161 -21.32135 -63.12985 -34.10203 z" stroke-linecap="round" />
</g>
		<g transform="matrix(1 0 0 1 0 0)"  >
<path style="stroke: none; stroke-width: 1; stroke-dasharray: none; stroke-linecap: butt; stroke-dashoffset: 0; stroke-linejoin: miter; stroke-miterlimit: 10; fill: rgb(255,255,255); fill-opacity: 0.54; fill-rule: evenodd; opacity: 0.1;"  transform=" translate(-307.5, -216.5)" d="M 384.94978 380.08915 c 7.97607 31.65777 -122.92229 -37.62052 -148.35107 -61.80196 c -25.42878 -24.18391 -15.63629 -52.48036 2.77011 -41.50782 c 18.40742 10.97007 27.82273 -5.06797 7.81763 -23.73343 c -29.90082 -27.89918 -9.41428 -45.9248 16.55625 -33.17011 c 43.09717 21.16912 124.52814 93.58472 119.25369 107.92106 c -5.27445 14.33634 -79.01556 -39.77394 -77.72352 -15.37469 c 1.29101 24.39802 72.62591 39.6935 79.67691 67.66693 z M 250.34601 381.01982 c -3.32413 18.41918 -71.32876 -15.87839 -92.50221 -48.97177 c -23.9272 -37.40765 13.82397 -59.66091 33.57147 -23.98837 c 23.23211 41.97068 61.37068 59.43319 58.93074 72.96014 z M 29.01945 380.05449 c -29.85789 -35.06612 -77.28092 -57.21418 -55.42977 -76.56651 c 22.51352 -19.94019 65.69144 40.00166 62.91622 10.3092 c -2.82531 -30.2172 -74.02016 -53.02986 -44.41373 -60.49876 c 29.6095 -7.46891 83.89034 21.66169 119.63905 61.24875 c 35.74871 39.58583 14.1572 51.66602 -13.54184 33.61317 c -22.92137 -14.94029 -46.26184 -2.24377 -22.36122 22.778 c 33.73502 35.31487 51.48109 81.3523 31.61297 82.53544 c -19.12193 1.13859 -46.27615 -35.6614 -78.42167 -73.41929 z M 389.292 267.79565 c 5.87345 -34.7728 40.29026 14.06036 53.86277 23.15547 c 21.42797 14.35614 32.93874 -2.72272 9.00132 -21.22481 c -12.26412 -9.48 -7.78697 -26.27793 13.69313 -19.93771 c 14.81037 4.3712 39.80983 13.89823 69.36618 32.0637 c 37.82476 23.24457 41.3247 56.2142 -3.47541 34.64038 c -13.54389 -6.52462 -35.55756 3.65339 -14.75108 15.72988 c 43.03379 24.98093 77.67548 36.64034 75.48801 52.07567 c -2.20382 15.52567 -53.55407 8.54562 -108.17121 -9.40575 c -54.33604 -17.85855 -98.64346 -85.59726 -95.0137 -107.09682 z M 369.30122 249.32078 c -8.84595 -4.28457 -10.82489 -16.52318 -3.76571 -21.65055 c 7.05918 -5.12737 19.76283 -1.71036 19.76283 7.40826 c 0 9.11491 -3.29551 20.3981 -15.99712 14.24228 z M 11.84068 210.43296 c -8.53827 -23.93144 27.71949 -21.86713 45.11597 -28.73332 c 17.3004 -6.83154 -21.20411 -12.82028 -20.7707 -34.91884 c 0.38127 -19.52064 25.90512 -27.6925 58.72426 -24.48465 c 32.21299 3.14845 43.74114 18.6568 38.87658 32.15281 c -5.85198 16.23729 -38.05577 -1.88239 -38.72632 5.64964 c -1.21231 13.56408 43.15032 18.09617 62.40411 33.90772 c 23.03381 18.91793 2.59327 37.28884 -16.48368 26.39055 c -33.35068 -19.05407 -59.05238 -6.36992 -38.84081 3.14721 c 20.21464 9.51466 33.12886 13.41185 37.35456 28.20116 c 4.22774 14.7893 -13.58273 34.06119 -28.11302 18.28428 c -40.38634 -43.85059 -94.6958 -46.0201 -99.53992 -59.59532 z M 187.62912 251.55835 c -3.78104 -6.83649 -13.68393 -18.70011 -9.30388 -23.28294 c 4.38106 -4.58159 19.29672 -5.1645 28.23466 7.36371 c 6.89358 9.66069 6.69221 16.62466 0.20648 22.08494 c -8.35121 7.02956 -15.35519 0.6683 -19.13726 -6.16695 z M 206.36773 182.46323 c -16.89051 -4.88851 -35.36948 -21.15303 -40.52025 -38.05244 c -9.66983 -31.71346 -24.80832 -45.56095 -41.65794 -51.3195 c -25.89592 -8.84883 2.97148 -40.69224 39.1771 -18.77437 c 7.97709 4.82911 23.07265 17.89196 26.25572 27.41033 c 5.27138 15.77196 14.26453 7.95528 8.13962 -4.3811 c -17.48337 -35.20968 23.49175 -26.28535 26.76272 24.14926 c 1.74895 26.95489 24.01817 26.92272 33.32308 40.68976 c 8.61187 12.7485 -13.02564 31.40901 -51.48007 20.27805 z M 91.78847 80.26111 c -10.9128 16.89322 -46.80155 -8.07285 -87.58756 38.01655 c -28.62718 32.34835 -56.51635 -3.43434 -23.17896 -24.47103 c 19.40916 -12.24727 32.38267 -30.03528 17.39444 -28.79149 c -14.98925 1.24007 -29.81087 12.42796 -35.80084 -4.18927 c -5.30716 -14.72371 18.06806 -33.5711 49.60641 -29.46722 c 16.70243 2.17446 27.3975 -12.8933 12.351 -18.1172 c -40.34443 -13.99724 6.59102 -35.90768 59.24046 -14.81034 c 34.26859 13.73363 38.83161 41.76895 8.68036 41.38901 c -30.14921 -0.37871 -64.41985 3.06182 -47.78897 9.84015 c 16.63087 6.77833 61.66098 8.0382 47.08469 30.60086 z M 243.01187 25.56173 c 7.97812 19.72484 20.22384 57.55452 7.80741 66.82289 c -18.05579 13.48364 -19.31921 -51.0893 -73.38846 -56.99141 c -43.88527 -4.78951 -36.8772 -29.664 -25.05875 -32.9721 c 11.81947 -3.31181 37.33616 11.48491 31.13357 -6.67808 c -6.20361 -18.163 37.98422 -23.39061 59.50623 29.81994 z M 565.79698 266.36622 c -22.59632 -4.69916 -105.89686 -55.60654 -92.31515 -81.77679 c 13.58069 -26.16902 44.17148 19.31272 50.4262 8.34636 c 14.4015 -25.24701 -65.57287 -36.72573 -68.5423 -60.64851 c -2.96739 -23.92278 64.94729 -8.59883 96.03384 19.7694 c 31.08552 28.36576 50.8136 58.83791 24.3422 61.16954 c -26.46834 2.3304 9.77204 26.12447 19.07797 33.58471 c 15.00765 12.02946 7.02442 27.05638 -29.02174 19.55529 z M 331.18412 221.53669 c -27.84624 -28.53407 -57.95558 -22.39063 -57.53853 -41.84692 c 0.53971 -25.10469 28.42172 -10.65572 31.36765 -20.91046 c 3.73096 -12.99478 -54.53741 -27.35588 -38.97062 -49.02994 c 16.08401 -22.40053 61.52197 12.09134 67.49048 -0.8985 c 8.13042 -17.70261 -57.20428 -12.68415 -51.00271 -40.08334 c 7.96687 -35.22948 124.90634 30.69244 143.2095 49.72547 c 18.30418 19.03426 12.47367 48.03862 -20.56933 23.43269 c -33.04198 -24.6047 -41.15911 0.36757 -18.89705 13.99724 c 30.15636 18.46621 57.78385 48.02501 52.2743 61.24256 c -11.45966 27.48706 -80.7318 -56.29588 -103.45998 -40.16626 c -7.52325 5.339 5.07001 10.51959 9.9683 15.92913 c 21.16527 23.37081 -2.36533 40.4014 -13.87099 28.60833 z M 552.80302 49.94614 c 27.03462 -3.19548 -60.00505 -35.13542 -56.04921 -53.49891 c 3.95584 -18.36349 76.38447 10.35622 97.16539 31.14045 c 32.73839 32.73819 15.36848 46.54237 0 48.15001 c -31.22454 3.26726 29.44186 50.86035 52.52065 65.23382 c 23.07981 14.37099 -17.80434 20.22607 -56.93033 2.66207 c -24.86658 -11.16685 -89.67792 -52.69942 -96.6727 -97.25049 c -3.26893 -20.83126 32.93158 6.75605 59.96621 3.56305 z M 397.39687 62.37534 c -68.35831 -41.36797 -117.35856 -37.26409 -131.89294 -56.88003 c -15.56167 -21.00823 24.93098 -25.20493 93.28928 0 c 38.23976 14.09872 28.46977 -2.59524 14.20728 -10.29558 c -9.91822 -5.35509 -10.75129 -19.64069 21.29917 -14.66307 c 31.74994 4.92812 57.89731 21.06393 66.35994 27.87814 c 34.0386 27.40909 19.70355 42.29245 -13.2587 22.92032 c -12.13021 -7.13104 -27.22475 2.16951 -14.61922 9.14833 c 28.14573 15.58136 57.06424 63.61256 27.74402 55.99391 c -22.48081 -5.84146 -42.01161 -21.32135 -63.12985 -34.10203 z" stroke-linecap="round" />
</g>
		<g transform="matrix(1 0 0 1 -83.82 -29.7)"  >
<path style="stroke: rgb(0,0,0); stroke-opacity: 0.13; stroke-width: 16.5; stroke-dasharray: none; stroke-linecap: butt; stroke-dashoffset: 0; stroke-linejoin: miter; stroke-miterlimit: 10; fill: rgb(255,121,26); fill-rule: nonzero; opacity: 1;"  transform=" translate(-223.68, -186.8)" d="M 171.32227 131.4731 h 104.71828 c 28.88579 0 52.3019 24.76922 52.3019 55.3242 c 0 30.55498 -23.41611 55.3242 -52.3019 55.3242 h -104.71828 c -28.88579 0 -52.3019 -24.76922 -52.3019 -55.3242 c 0 -30.55498 23.41611 -55.3242 52.3019 -55.3242 z" stroke-linecap="round" />
</g>
		<g transform="matrix(1 0 0 1 -83.82 -29.7)"  >
<path style="stroke: rgb(204,97,21); stroke-width: 5; stroke-dasharray: none; stroke-linecap: butt; stroke-dashoffset: 0; stroke-linejoin: miter; stroke-miterlimit: 10; fill: rgb(255,121,26); fill-rule: nonzero; opacity: 1;"  transform=" translate(-223.68, -186.8)" d="M 171.32227 131.4731 h 104.71828 c 28.88579 0 52.3019 24.76922 52.3019 55.3242 c 0 30.55498 -23.41611 55.3242 -52.3019 55.3242 h -104.71828 c -28.88579 0 -52.3019 -24.76922 -52.3019 -55.3242 c 0 -30.55498 23.41611 -55.3242 52.3019 -55.3242 z" stroke-linecap="round" />
</g>
		<g transform="matrix(1 0 0 1 -83.56 -30.67)"  >
<path style="stroke: none; stroke-width: 1; stroke-dasharray: none; stroke-linecap: butt; stroke-dashoffset: 0; stroke-linejoin: miter; stroke-miterlimit: 10; fill: rgb(255,255,255); fill-rule: nonzero; opacity: 1;"  transform=" translate(-223.94, -185.83)" d="M 159.84319 201.45902 l -7.69906 -23.19276 h 3.93335 l 5.85812 18.81047 l 6.19237 -18.81047 h 3.93233 l -8.40948 23.19276 z M 194.32031 202.07749 c -1.17142 0.31032 -1.63242 0.39898 -2.38577 0.39898 c -2.25902 0 -3.34662 -1.01854 -3.59807 -3.40809 c -2.46857 2.38956 -4.68567 3.40809 -7.44761 3.40809 c -4.43524 0 -7.19615 -2.65554 -7.19615 -6.86052 c 0 -3.00911 1.29715 -5.0451 3.84953 -6.19663 c 1.33803 -0.57522 2.09138 -0.75255 7.02851 -1.41643 c 2.84575 -0.3979 3.5991 -0.97312 3.64101 -2.56688 v -0.97312 c 0 -2.21331 -1.71624 -3.45242 -4.89624 -3.45242 c -3.2628 0 -4.85331 1.28344 -5.14566 4.11631 h -3.51528 c 0.08382 -2.30198 0.50189 -3.62975 1.50669 -4.82453 c 1.50567 -1.72675 4.05806 -2.69988 7.27997 -2.69988 c 5.39813 0 8.24286 2.21331 8.24286 6.32962 v 13.63129 c 0 1.15045 0.66953 1.81433 1.88286 1.81433 c 0.20955 0 0.37616 0 0.75335 -0.08866 z M 188.21176 189.99455 c -1.17244 0.57631 -1.88286 0.75363 -5.60666 1.28344 c -3.76571 0.57631 -5.27241 1.81541 -5.27241 4.2493 c 0 2.34523 1.59051 3.71841 4.30951 3.71841 c 2.05049 0 3.76571 -0.70822 5.18859 -2.08032 c 1.04569 -1.01854 1.38097 -1.77108 1.38097 -3.01019 z M 201.30793 178.26626 v 4.20497 c 2.00858 -3.45242 3.7238 -4.86886 5.98282 -4.86886 c 0.41909 0 0.75335 0.04541 1.33906 0.13191 v 3.76274 c -4.8114 -0.13299 -6.98762 2.34631 -7.02953 7.9223 v 12.03969 h -3.51426 v -23.19276 z M 215.4498 201.45902 h -3.47235 v -23.19276 h 3.47235 z M 215.4498 173.84071 h -3.51426 v -4.6472 h 3.51426 z M 240.84689 202.07749 c -1.17142 0.31032 -1.6314 0.39898 -2.38475 0.39898 c -2.25902 0 -3.34662 -1.01854 -3.59807 -3.40809 c -2.46857 2.38956 -4.68567 3.40809 -7.44863 3.40809 c -4.43422 0 -7.19615 -2.65554 -7.19615 -6.86052 c 0 -3.00911 1.29715 -5.0451 3.84953 -6.19663 c 1.33906 -0.57522 2.0924 -0.75255 7.02953 -1.41643 c 2.84575 -0.3979 3.59807 -0.97312 3.64101 -2.56688 v -0.97312 c 0 -2.21331 -1.71624 -3.45242 -4.89624 -3.45242 c -3.26382 0 -4.85331 1.28344 -5.14668 4.11631 h -3.51426 c 0.08382 -2.30198 0.50189 -3.62975 1.50567 -4.82453 c 1.50669 -1.72675 4.05908 -2.69988 7.28099 -2.69988 c 5.39711 0 8.24286 2.21331 8.24286 6.32962 v 13.63129 c 0 1.15045 0.66953 1.81433 1.88286 1.81433 c 0.20852 0 0.37616 0 0.75232 -0.08866 z M 234.73834 189.99455 c -1.1704 0.57631 -1.88286 0.75363 -5.60666 1.28344 c -3.76571 0.57631 -5.27138 1.81541 -5.27138 4.2493 c 0 2.34523 1.58949 3.71841 4.30951 3.71841 c 2.05049 0 3.76571 -0.70822 5.18859 -2.08032 c 1.04569 -1.01854 1.37994 -1.77108 1.37994 -3.01019 z M 247.45835 169.19459 v 12.21377 c 1.6314 -2.61121 3.76571 -3.80599 6.77808 -3.80599 c 5.81518 0 9.37237 4.6472 9.37237 12.17161 c 0 7.70065 -3.76469 12.7025 -9.54001 12.7025 c -3.05427 0 -5.27138 -1.28344 -6.94572 -3.98332 v 2.96478 h -3.13809 v -32.26443 z M 253.5669 181.05371 c -3.7238 0 -6.10855 3.54217 -6.10855 8.98517 c 0 5.44408 2.38475 8.98517 6.10855 8.98517 c 3.80762 0 6.40192 -3.58542 6.40192 -8.85218 c 0 -5.53166 -2.51047 -9.11708 -6.40192 -9.11708 z M 271.34977 201.45794 h -3.51528 v -32.26443 h 3.51528 z M 279.59263 191.10175 c 0.04191 2.3009 0.33425 3.62867 1.17142 4.95644 c 1.17142 1.94733 3.05325 3.01019 5.27138 3.01019 c 2.80384 0 4.77052 -1.59376 5.73239 -4.6472 h 3.51528 c -0.87908 5.0451 -4.35142 8.0553 -9.37237 8.0553 c -6.19339 0 -9.9591 -4.6472 -9.9591 -12.3046 c 0 -7.65632 3.93335 -12.5695 10.0419 -12.5695 c 4.10099 0 7.44863 2.30198 8.87048 6.10797 c 0.62762 1.72567 0.87908 3.85032 0.87908 7.39033 z M 291.97737 188.09264 c 0 -4.16064 -2.46857 -7.08217 -6.02575 -7.08217 c -3.51426 0 -5.98282 2.78854 -6.27619 7.08109 z" stroke-linecap="round" />
</g>
</g>
</g>
</svg>